<?xml version="1.0" encoding="UTF-8"?>
<svg id="Layer_1" data-name="Layer 1" xmlns="http://www.w3.org/2000/svg" viewBox="0 0 40 29.62">
  <defs>
    <style>
      .cls-1 {
        fill: none;
        stroke: #536cb3;
        stroke-linecap: round;
        stroke-linejoin: round;
        stroke-width: .75px;
      }
    </style>
  </defs>
  <g id="_3" data-name="3">
    <rect class="cls-1" x="4.88" y="2.72" width="30.25" height="24.18"/>
    <line class="cls-1" x1="4.88" y1="6.06" x2="31.92" y2="6.06"/>
    <line class="cls-1" x1="6.78" y1="4.41" x2="7.87" y2="4.41"/>
    <line class="cls-1" x1="8.96" y1="4.41" x2="10.05" y2="4.41"/>
    <line class="cls-1" x1="11.14" y1="4.41" x2="12.23" y2="4.41"/>
    <line class="cls-1" x1="8.27" y1="9.39" x2="11.54" y2="9.39"/>
    <line class="cls-1" x1="8.27" y1="15.12" x2="13.04" y2="15.12"/>
    <line class="cls-1" x1="16.55" y1="20.85" x2="18.6" y2="20.85"/>
    <line class="cls-1" x1="8.27" y1="23.71" x2="14.17" y2="23.71"/>
    <line class="cls-1" x1="8.27" y1="12.25" x2="10.42" y2="12.25"/>
    <line class="cls-1" x1="15.48" y1="15.12" x2="17.63" y2="15.12"/>
    <line class="cls-1" x1="12.86" y1="12.25" x2="13.75" y2="12.25"/>
    <line class="cls-1" x1="8.27" y1="20.85" x2="10.42" y2="20.85"/>
    <line class="cls-1" x1="13.04" y1="20.85" x2="13.92" y2="20.85"/>
    <line class="cls-1" x1="16.55" y1="23.71" x2="17.44" y2="23.71"/>
    <line class="cls-1" x1="15.48" y1="17.98" x2="11.77" y2="17.98"/>
    <line class="cls-1" x1="9.15" y1="17.98" x2="8.27" y2="17.98"/>
    <polyline class="cls-1" points="23.33 15.73 21.48 17.91 23.33 20.09"/>
    <polyline class="cls-1" points="29.35 20.09 31.19 17.91 29.35 15.73"/>
    <line class="cls-1" x1="25.37" y1="20.7" x2="27.31" y2="15.12"/>
  </g>
</svg>